<?xml version="1.0" standalone="no"?>
<!DOCTYPE svg PUBLIC "-//W3C//DTD SVG 1.1//EN" "http://www.w3.org/Graphics/SVG/1.1/DTD/svg11.dtd">
<svg xmlns="http://www.w3.org/2000/svg" version="1.1" viewBox="0.00 0.00 632.00 395.00" width="632" height="395">
<path fill="#a267f5" d="   M 340.09 28.54   C 358.29 30.06 375.62 32.62 393.89 37.82   A 1.78 1.71 4.6 0 1 395.16 39.25   Q 395.20 39.54 394.62 40.13   Q 362.79 72.33 323.76 111.27   A 1.49 1.46 21.3 0 1 322.73 111.71   Q 322.11 111.72 322.08 111.07   Q 321.70 102.72 321.89 95.48   C 321.96 92.91 323.59 90.84 325.34 89.13   Q 335.30 79.36 345.97 68.88   C 348.09 66.80 348.59 64.03 348.33 61.18   Q 347.66 53.86 351.42 47.11   Q 352.00 46.08 351.58 45.00   C 348.79 37.78 338.14 42.17 341.57 48.06   C 344.13 52.46 345.11 57.50 344.21 62.52   C 343.73 65.17 342.39 67.03 340.42 68.91   Q 331.86 77.01 323.46 85.59   Q 321.87 87.21 321.85 84.94   Q 321.68 67.83 321.75 48.19   Q 321.77 41.53 321.81 41.30   C 322.35 38.15 324.14 36.60 326.34 34.43   Q 335.85 25.06 345.30 15.81   Q 347.23 13.92 347.58 10.40   Q 347.73 8.82 348.51 7.74   C 352.22 2.59 361.00 9.66 356.57 14.52   Q 355.47 15.73 353.88 16.13   Q 345.72 18.17 339.62 27.57   A 0.63 0.63 0.0 0 0 340.09 28.54   Z"/>
<path fill="#a267f5" d="   M 387.64 93.09   C 393.44 86.86 380.81 79.21 378.65 89.50   Q 378.02 92.55 375.79 94.69   Q 370.17 100.11 364.70 105.75   Q 362.66 107.86 362.67 110.86   Q 362.77 131.19 362.75 151.71   C 362.75 154.06 361.41 155.10 359.92 156.61   Q 352.02 164.64 344.13 172.50   A 1.00 0.99 -64.8 0 1 343.37 172.78   Q 342.57 172.73 342.52 171.75   Q 341.59 152.21 342.40 135.37   Q 342.52 133.00 343.79 131.10   C 346.16 127.57 345.95 122.20 340.36 122.25   Q 336.33 122.29 335.08 125.68   C 334.24 127.95 335.64 130.44 337.16 132.04   A 2.24 2.21 -67.5 0 1 337.77 133.55   L 338.27 174.78   Q 338.30 177.11 335.97 177.13   Q 321.72 177.24 304.70 177.27   Q 301.12 177.28 298.79 179.65   Q 285.09 193.61 272.49 206.44   A 1.50 1.49 -40.2 0 1 270.19 206.25   L 262.57 195.25   A 2.96 2.95 50.2 0 1 262.91 191.48   Q 290.91 163.46 319.43 134.91   C 325.06 129.27 318.96 121.36 324.88 115.44   Q 368.16 72.22 412.81 27.47   Q 414.37 25.90 415.18 23.74   C 415.93 21.72 416.02 19.09 417.85 17.73   Q 420.98 15.40 424.08 18.05   Q 427.72 21.16 425.50 25.65   A 1.50 1.47 3.2 0 1 424.64 26.40   C 421.85 27.35 419.02 27.20 416.71 29.35   Q 412.12 33.60 407.75 38.14   A 2.93 2.91 63.7 0 0 406.96 40.50   Q 407.33 43.66 407.06 47.12   Q 404.28 82.75 401.37 112.15   C 401.08 115.09 399.49 117.30 397.42 119.35   Q 383.02 133.62 368.86 147.75   Q 366.76 149.85 366.76 146.87   Q 366.77 130.06 366.59 114.00   Q 366.55 109.93 369.24 106.87   C 374.34 101.06 378.99 95.51 386.75 93.61   Q 387.27 93.49 387.64 93.09   Z"/>
<path fill="#a267f5" d="   M 278.67 111.59   C 279.84 103.82 268.51 102.49 268.22 110.70   Q 268.15 112.57 266.98 113.87   Q 256.22 125.77 241.83 138.86   A 0.32 0.31 -26.5 0 1 241.31 138.69   Q 239.28 127.12 238.46 115.00   C 238.37 113.73 239.09 113.34 239.88 112.54   Q 253.97 98.27 267.76 84.81   Q 270.87 81.77 270.86 76.31   Q 270.85 71.51 270.59 66.80   C 270.43 63.75 271.49 60.83 273.67 58.74   Q 289.71 43.38 303.35 29.08   A 4.20 4.18 -69.0 0 1 306.26 27.78   Q 315.87 27.50 325.02 27.46   Q 325.75 27.46 326.42 27.74   A 0.92 0.92 0.0 0 1 326.63 29.30   C 322.73 32.39 317.89 35.69 317.89 41.26   Q 317.88 84.86 317.69 127.29   C 317.67 130.45 316.45 132.50 314.10 134.86   Q 307.19 141.80 300.40 148.35   A 0.94 0.94 0.0 0 1 298.80 147.67   Q 298.70 117.79 298.74 86.85   C 298.75 85.13 300.03 83.99 301.04 82.74   C 305.26 77.49 297.49 72.37 293.12 76.76   C 291.65 78.23 291.04 80.67 292.47 82.40   C 293.44 83.58 294.77 84.89 294.78 86.52   Q 294.83 101.65 294.94 117.21   C 294.95 119.13 294.93 120.65 293.48 122.09   Q 271.37 144.01 249.46 165.84   A 0.35 0.35 0.0 0 1 248.88 165.71   Q 245.24 155.79 242.89 145.53   Q 242.45 143.60 243.54 142.54   Q 257.91 128.53 269.64 116.63   C 272.14 114.10 277.86 116.95 278.67 111.59   Z"/>
<path fill="#a267f5" d="   M 235.27 82.16   A 0.86 0.86 0.0 0 0 234.03 82.14   Q 227.63 88.47 221.55 94.58   Q 216.71 99.45 216.35 103.87   Q 216.23 105.40 215.05 106.24   C 208.58 110.87 201.58 98.90 210.49 96.94   Q 214.98 95.96 218.57 92.24   Q 234.54 75.69 246.86 63.59   Q 249.87 60.64 254.38 59.84   Q 256.09 59.54 256.89 58.37   C 259.07 55.19 255.68 50.78 252.67 49.84   Q 252.16 49.68 251.67 49.89   Q 247.47 51.68 246.75 56.20   Q 246.35 58.66 244.83 60.14   Q 240.37 64.48 235.66 69.21   A 0.92 0.92 0.0 0 1 234.10 68.66   Q 232.95 57.17 231.82 44.88   C 231.63 42.81 233.08 41.43 234.88 40.86   Q 266.18 30.94 296.40 28.49   Q 297.46 28.41 297.38 29.47   Q 297.34 29.86 296.61 30.60   Q 282.78 44.40 268.94 58.20   Q 266.82 60.31 266.88 63.88   Q 267.02 71.36 267.02 78.20   C 267.02 80.91 265.38 82.06 263.63 83.79   Q 251.74 95.61 238.82 108.30   A 0.77 0.76 42.0 0 1 237.81 108.35   Q 237.54 108.13 237.51 107.78   Q 236.56 95.80 235.57 82.83   Q 235.54 82.44 235.27 82.16   Z"/>
<path fill="#8562e7" d="   M 285.66 227.11   Q 280.99 231.79 276.35 236.44   C 273.69 239.11 276.76 244.44 271.18 245.31   C 264.45 246.36 262.14 236.47 268.41 235.05   Q 273.27 233.94 277.01 230.26   Q 300.01 207.62 322.99 183.43   Q 324.38 181.96 326.27 181.80   Q 331.89 181.33 338.02 181.52   C 339.95 181.58 341.69 180.67 343.02 179.32   Q 378.40 143.20 413.06 109.34   Q 416.26 106.22 416.98 101.76   C 417.99 95.48 425.32 96.31 427.02 101.43   Q 428.43 105.69 424.09 107.24   C 421.36 108.22 418.91 109.29 416.63 111.21   Q 407.66 118.75 402.06 125.49   C 400.09 127.85 398.97 130.46 398.49 133.50   Q 390.57 183.56 357.39 220.68   C 345.76 233.67 332.84 246.06 319.98 258.20   A 0.61 0.60 -44.0 0 1 319.14 258.19   L 305.39 244.37   A 0.59 0.59 0.0 0 1 305.38 243.54   Q 330.88 217.81 355.26 193.26   Q 357.32 191.19 360.18 191.00   C 367.57 190.52 364.94 180.64 358.10 180.93   C 355.97 181.02 354.43 182.83 354.33 184.91   Q 354.16 188.58 350.32 192.58   Q 327.04 216.83 302.77 240.03   A 1.77 1.77 0.0 0 1 300.26 239.96   L 288.31 227.16   A 1.84 1.84 0.0 0 0 285.66 227.11   Z"/>
<path fill="#a267f5" d="   M 252.73 176.12   A 1.53 1.52 50.2 0 0 250.37 175.90   Q 238.97 187.59 226.64 200.27   C 224.25 202.72 223.28 205.74 222.29 208.95   A 1.61 1.60 -4.8 0 1 221.45 209.94   C 213.66 213.67 209.68 201.66 217.63 200.66   Q 221.44 200.18 224.58 196.91   Q 259.41 160.68 294.21 126.73   Q 294.75 126.20 294.75 126.96   L 294.77 153.54   Q 294.77 154.17 294.32 154.62   L 260.21 188.45   A 1.00 0.99 40.7 0 1 258.92 188.54   Q 258.53 188.26 258.37 187.80   Q 256.01 181.07 252.73 176.12   Z"/>
<path fill="#8562e7" d="   M 317.84 183.37   L 282.69 219.27   A 1.60 1.60 0.0 0 1 280.35 219.21   L 274.32 212.39   A 1.60 1.60 0.0 0 1 274.37 210.22   L 302.08 181.62   A 1.60 1.60 0.0 0 1 303.17 181.14   L 316.64 180.65   A 1.60 1.60 0.0 0 1 317.84 183.37   Z"/>
<path fill="#8562e7" d="   M 156.43 303.95   L 164.50 287.10   Q 165.30 285.45 167.13 285.48   L 168.28 285.50   Q 170.22 285.54 169.40 287.30   Q 164.01 298.72 158.16 311.05   C 157.16 313.16 154.59 313.32 153.44 311.22   Q 152.88 310.22 152.37 309.13   Q 147.43 298.54 142.08 287.47   Q 141.30 285.85 143.02 285.31   L 143.98 285.01   A 2.19 2.19 0.0 0 1 146.62 286.18   L 154.91 303.94   A 0.84 0.84 0.0 0 0 156.43 303.95   Z"/>
<path fill="#8562e7" d="   M 354.3298 301.3396   A 10.83 10.83 0.0 0 1 343.5377 312.2074   L 336.3377 312.2325   A 10.83 10.83 0.0 0 1 325.4700 301.4404   L 325.4502 295.7804   A 10.83 10.83 0.0 0 1 336.2423 284.9126   L 343.4423 284.8875   A 10.83 10.83 0.0 0 1 354.3100 295.6796   L 354.3298 301.3396   Z   M 349.6611 295.6077   A 5.98 5.98 0.0 0 0 343.7230 289.5861   L 336.3031 289.5343   A 5.98 5.98 0.0 0 0 330.2815 295.4724   L 330.2389 301.5723   A 5.98 5.98 0.0 0 0 336.1770 307.5939   L 343.5969 307.6457   A 5.98 5.98 0.0 0 0 349.6185 301.7076   L 349.6611 295.6077   Z"/>
<path fill="#8562e7" d="   M 184.6046 311.8080   A 0.40 0.40 0.0 0 1 184.2032 312.2066   L 180.3832 312.1933   A 0.40 0.40 0.0 0 1 179.9846 311.7919   L 180.0754 285.7920   A 0.40 0.40 0.0 0 1 180.4768 285.3934   L 184.2968 285.4067   A 0.40 0.40 0.0 0 1 184.6954 285.8081   L 184.6046 311.8080   Z"/>
<path fill="#8562e7" d="   M 209.35 311.67   L 206.62 311.63   A 0.91 0.91 0.0 0 1 205.72 310.71   L 205.79 291.04   A 0.91 0.91 0.0 0 0 204.90 290.13   L 195.33 289.92   A 0.91 0.91 0.0 0 1 194.44 288.93   L 194.66 286.54   A 0.91 0.91 0.0 0 1 195.56 285.71   L 219.72 285.43   A 0.91 0.91 0.0 0 1 220.62 286.15   L 221.19 288.79   A 0.91 0.91 0.0 0 1 220.30 289.89   L 211.12 289.98   A 0.91 0.91 0.0 0 0 210.22 290.89   L 210.28 310.76   A 0.91 0.91 0.0 0 1 209.35 311.67   Z"/>
<path fill="#8562e7" d="   M 309.29 295.28   L 309.32 288.70   Q 309.34 286.41 311.56 285.86   Q 311.68 285.83 311.85 285.79   Q 314.06 285.24 314.05 287.51   L 314.02 310.18   Q 314.01 312.13 312.07 312.21   L 311.35 312.23   Q 309.40 312.31 309.39 310.35   L 309.35 302.50   A 1.56 1.55 88.9 0 0 307.75 300.95   L 293.78 301.39   A 1.35 1.35 0.0 0 0 292.47 302.72   L 292.34 309.83   Q 292.31 311.43 290.78 311.88   Q 290.47 311.97 290.15 311.92   Q 288.16 311.57 288.08 309.56   Q 287.63 298.72 288.13 286.92   Q 288.20 285.30 289.81 285.49   L 290.70 285.59   Q 292.27 285.78 292.47 287.34   Q 292.98 291.28 292.45 295.22   A 1.13 1.13 0.0 0 0 293.57 296.50   L 308.09 296.47   A 1.21 1.20 -0.0 0 0 309.29 295.28   Z"/>
<path fill="#8562e7" d="   M 369.89 292.64   Q 369.89 292.65 369.89 292.66   Q 370.15 301.13 370.28 309.23   Q 370.32 311.41 368.20 311.93   L 367.25 312.17   Q 365.22 312.67 365.24 310.58   Q 365.29 300.48 365.55 290.45   C 365.62 287.75 367.62 286.20 370.15 285.95   C 380.56 284.96 395.88 283.43 391.14 300.40   C 389.36 306.79 377.83 306.41 372.85 305.49   A 0.57 0.57 0.0 0 1 372.38 305.01   Q 371.87 301.63 375.09 301.27   Q 379.49 300.77 384.08 300.51   C 388.58 300.26 388.50 290.19 383.98 290.20   Q 377.34 290.21 371.52 290.27   Q 369.97 290.29 369.89 292.64   Z"/>
<path fill="#8562e7" d="   M 424.26 307.03   A 1.33 1.32 88.6 0 0 422.95 305.77   L 409.25 305.69   A 1.80 1.79 -86.0 0 0 407.46 307.25   Q 407.25 308.80 406.86 310.37   C 406.08 313.53 402.61 312.23 402.43 309.69   Q 401.96 303.39 402.72 297.61   C 404.42 284.69 416.54 284.83 426.60 285.64   Q 428.71 285.81 428.77 287.93   Q 429.13 300.30 428.85 309.91   Q 428.81 311.51 427.36 312.17   Q 427.00 312.33 426.63 312.21   Q 424.62 311.55 424.43 309.47   Q 424.32 308.24 424.26 307.03   Z   M 411.76 290.67   A 2.99 2.99 0.0 0 0 409.33 292.38   L 407.21 296.92   A 2.99 2.99 0.0 0 0 409.96 301.17   L 421.24 301.03   A 2.99 2.99 0.0 0 0 424.18 298.25   L 424.57 292.97   A 2.99 2.99 0.0 0 0 421.31 289.77   L 411.76 290.67   Z"/>
<path fill="#8562e7" d="   M 446.79 307.30   L 464.29 307.13   A 0.83 0.83 0.0 0 1 465.09 307.68   L 466.01 310.34   A 0.83 0.83 0.0 0 1 465.23 311.44   L 442.27 311.66   A 0.83 0.83 0.0 0 1 441.43 310.82   L 441.67 286.26   A 0.83 0.83 0.0 0 1 442.54 285.44   L 445.44 285.57   A 0.83 0.83 0.0 0 1 446.23 286.41   L 445.95 306.46   A 0.83 0.83 0.0 0 0 446.79 307.30   Z"/>
<path fill="#8562e7" d="   M 250.34 307.90   L 250.26 290.02   A 3.68 3.68 0.0 0 1 253.87 286.32   L 269.98 285.99   A 3.68 3.68 0.0 0 1 273.70 289.12   L 276.45 307.45   A 3.68 3.68 0.0 0 1 272.79 311.67   L 253.99 311.56   A 3.68 3.68 0.0 0 1 250.34 307.90   Z   M 257.29 297.25   A 1.12 1.12 0.0 0 1 258.41 296.38   L 268.45 296.65   A 1.12 1.12 0.0 0 0 269.57 295.79   L 270.52 291.68   A 1.12 1.12 0.0 0 0 269.43 290.31   L 255.70 290.28   A 1.12 1.12 0.0 0 0 254.58 291.39   L 254.45 306.16   A 1.12 1.12 0.0 0 0 255.55 307.29   L 271.03 307.57   A 1.12 1.12 0.0 0 0 272.16 306.36   L 271.82 302.01   A 1.12 1.12 0.0 0 0 270.67 300.97   L 257.80 301.39   A 1.12 1.12 0.0 0 1 256.67 300.03   L 257.29 297.25   Z"/>
<path fill="#8562e7" d="   M 100.22 347.09   Q 101.14 347.30 101.49 346.52   Q 104.68 339.29 107.44 333.16   Q 108.58 330.65 111.34 330.61   L 115.74 330.56   Q 119.34 330.52 117.48 333.60   Q 111.72 343.16 107.79 351.86   Q 104.95 358.16 104.84 365.00   Q 104.80 367.52 102.27 367.53   L 97.52 367.54   Q 95.30 367.55 95.48 365.34   Q 96.00 358.96 93.26 353.61   Q 88.04 343.42 83.16 333.53   Q 81.92 331.03 84.68 330.64   L 88.54 330.09   A 3.91 3.91 0.0 0 1 92.61 332.26   L 99.53 346.54   A 1.02 1.01 -6.1 0 0 100.22 347.09   Z"/>
<path fill="#8562e7" d="   M 269.10 352.90   Q 269.35 352.65 269.43 352.29   Q 271.50 342.69 273.80 333.51   C 274.92 329.07 283.13 328.65 284.25 333.41   Q 286.47 342.84 288.76 351.50   Q 288.91 352.03 289.49 352.09   A 0.65 0.65 0.0 0 0 290.19 351.58   L 294.11 332.48   A 2.49 2.49 0.0 0 1 296.56 330.49   L 303.93 330.51   A 1.07 1.06 -81.2 0 1 304.94 331.90   Q 301.00 344.48 296.98 361.37   C 295.70 366.74 292.28 368.81 286.64 366.94   Q 284.60 366.26 284.06 364.04   Q 281.91 355.20 279.79 346.61   A 0.62 0.62 0.0 0 0 278.92 346.19   Q 278.56 346.37 278.43 346.74   Q 275.32 356.13 273.46 365.39   A 1.77 1.76 3.7 0 1 271.86 366.79   L 264.55 367.31   A 2.03 2.01 -9.2 0 1 262.46 365.81   L 253.43 331.77   A 1.28 1.28 0.0 0 1 254.75 330.16   L 261.36 330.56   A 2.87 2.87 0.0 0 1 264.00 332.84   L 268.15 352.62   A 0.56 0.56 0.0 0 0 269.10 352.90   Z"/>
<path fill="#8562e7" d="   M 483.7959 358.8338   A 8.49 8.49 0.0 0 1 475.3953 367.4123   L 458.8362 367.5857   A 8.49 8.49 0.0 0 1 450.2577 359.1851   L 450.0441 338.7862   A 8.49 8.49 0.0 0 1 458.4447 330.2077   L 475.0038 330.0343   A 8.49 8.49 0.0 0 1 483.5823 338.4349   L 483.7959 358.8338   Z   M 474.5730 339.3760   A 2.02 2.02 0.0 0 0 472.5707 337.3384   L 461.5711 337.2424   A 2.02 2.02 0.0 0 0 459.5335 339.2447   L 459.3670 358.3240   A 2.02 2.02 0.0 0 0 461.3693 360.3616   L 472.3689 360.4576   A 2.02 2.02 0.0 0 0 474.4065 358.4553   L 474.5730 339.3760   Z"/>
<path fill="#8562e7" d="   M 61.00 338.53   Q 59.67 339.35 59.68 340.77   Q 59.75 348.44 59.76 357.43   A 2.77 2.76 -1.6 0 0 62.67 360.18   L 76.23 359.48   Q 79.52 359.30 79.89 362.59   L 79.96 363.19   Q 80.34 366.69 76.83 366.85   Q 66.94 367.31 56.99 367.58   C 52.58 367.69 49.95 364.28 49.97 360.10   Q 50.05 349.23 49.98 338.68   C 49.94 331.92 54.85 331.01 60.26 330.75   Q 69.67 330.29 78.48 331.02   A 1.42 1.42 0.0 0 1 79.78 332.48   L 79.65 336.90   Q 79.61 338.15 78.36 338.15   L 62.10 338.21   A 2.11 2.03 -60.1 0 0 61.00 338.53   Z"/>
<path fill="#8562e7" d="   M 151.92 346.47   A 1.66 1.65 -50.6 0 0 152.09 348.27   Q 156.93 354.31 155.25 361.10   C 154.42 364.46 152.14 366.53 148.71 366.58   Q 136.74 366.76 125.32 367.05   A 1.75 1.75 0.0 0 1 123.52 365.29   L 123.57 332.00   A 1.33 1.32 89.3 0 1 124.85 330.68   Q 134.35 330.39 145.77 330.79   Q 153.14 331.06 154.13 337.39   C 154.64 340.61 153.39 343.64 151.92 346.47   Z   M 144.8350 339.9492   A 2.38 2.38 0.0 0 0 142.4467 337.5775   L 135.2868 337.6025   A 2.38 2.38 0.0 0 0 132.9151 339.9908   L 132.9250 342.8108   A 2.38 2.38 0.0 0 0 135.3133 345.1825   L 142.4732 345.1575   A 2.38 2.38 0.0 0 0 144.8449 342.7692   L 144.8350 339.9492   Z   M 146.3747 354.6534   A 2.16 2.16 0.0 0 0 144.2681 352.4413   L 135.2508 352.2209   A 2.16 2.16 0.0 0 0 133.0386 354.3275   L 132.9653 357.3266   A 2.16 2.16 0.0 0 0 135.0719 359.5387   L 144.0892 359.7591   A 2.16 2.16 0.0 0 0 146.3014 357.6525   L 146.3747 354.6534   Z"/>
<path fill="#8562e7" d="   M 173.56 359.54   L 190.14 360.30   A 1.52 1.52 0.0 0 1 191.57 361.57   L 192.11 364.78   A 1.52 1.52 0.0 0 1 190.64 366.55   L 164.31 367.04   A 1.52 1.52 0.0 0 1 162.76 365.52   L 162.72 332.09   A 1.52 1.52 0.0 0 1 164.24 330.57   L 190.33 330.57   A 1.52 1.52 0.0 0 1 191.85 332.15   L 191.70 336.10   A 1.52 1.52 0.0 0 1 190.23 337.56   L 173.45 338.01   A 1.52 1.52 0.0 0 0 171.97 339.53   L 171.99 343.40   A 1.52 1.52 0.0 0 0 173.43 344.91   L 185.94 345.51   A 1.52 1.52 0.0 0 1 187.38 346.95   L 187.54 350.13   A 1.52 1.52 0.0 0 1 186.14 351.72   L 173.17 352.72   A 1.52 1.52 0.0 0 0 171.77 354.38   L 172.12 358.16   A 1.52 1.52 0.0 0 0 173.56 359.54   Z"/>
<path fill="#8562e7" d="   M 225.89 357.86   L 230.28 365.31   A 1.15 1.15 0.0 0 1 229.58 367.01   C 224.18 368.41 218.82 366.51 217.63 360.99   Q 216.45 355.45 209.50 355.47   Q 207.77 355.47 207.77 357.21   L 207.77 363.76   Q 207.78 367.55 203.99 367.55   L 202.01 367.54   Q 198.24 367.54 198.23 363.76   L 198.22 331.81   A 1.15 1.15 0.0 0 1 199.35 330.66   Q 211.64 330.42 223.13 330.84   Q 228.30 331.02 229.65 335.58   C 231.80 342.89 231.42 350.43 226.03 356.40   A 1.24 1.23 -39.6 0 0 225.89 357.86   Z   M 221.3098 339.8828   A 2.26 2.26 0.0 0 0 219.0776 337.5954   L 210.0783 337.4854   A 2.26 2.26 0.0 0 0 207.7908 339.7177   L 207.7102 346.3172   A 2.26 2.26 0.0 0 0 209.9424 348.6046   L 218.9417 348.7146   A 2.26 2.26 0.0 0 0 221.2292 346.4823   L 221.3098 339.8828   Z"/>
<path fill="#8562e7" d="   M 328.68 361.23   C 325.68 359.89 320.05 360.39 316.96 360.81   A 1.86 1.86 0.0 0 0 315.41 362.23   L 314.66 365.42   A 1.93 1.92 5.3 0 1 312.86 366.91   L 305.53 367.22   A 1.46 1.46 0.0 0 1 304.10 365.24   Q 310.05 349.64 315.49 335.01   C 316.15 333.22 316.78 330.92 319.11 330.73   C 321.60 330.52 327.45 329.92 328.53 332.75   Q 334.63 348.74 340.81 365.15   A 1.38 1.38 0.0 0 1 339.92 366.95   Q 331.72 369.48 329.44 362.09   Q 329.26 361.48 328.68 361.23   Z   M 320.29 354.28   L 324.95 354.24   A 0.78 0.78 0.0 0 0 325.72 353.45   L 325.72 353.11   A 9.34 3.00 89.5 0 0 322.63 343.80   L 322.41 343.80   A 9.34 3.00 89.5 0 0 319.50 353.17   L 319.50 353.51   A 0.78 0.78 0.0 0 0 320.29 354.28   Z"/>
<path fill="#8562e7" d="   M 357.56 355.74   A 1.25 1.24 85.4 0 0 356.52 356.97   L 356.53 364.74   Q 356.54 367.27 354.01 367.30   L 349.36 367.36   Q 347.10 367.38 347.09 365.11   L 346.95 332.52   A 1.79 1.79 0.0 0 1 348.69 330.72   Q 358.40 330.45 369.81 330.70   C 382.17 330.98 381.97 349.64 374.63 355.30   A 1.52 1.51 55.4 0 0 374.27 357.29   Q 376.60 361.12 378.95 365.21   Q 379.36 365.92 379.23 366.75   A 0.95 0.95 0.0 0 1 378.26 367.54   L 371.43 367.30   A 3.45 3.45 0.0 0 1 368.59 365.64   Q 366.79 362.68 365.21 359.18   C 363.80 356.04 360.61 355.25 357.56 355.74   Z   M 369.6814 339.9485   A 2.45 2.45 0.0 0 0 367.2016 337.5286   L 358.7223 337.6322   A 2.45 2.45 0.0 0 0 356.3024 340.1120   L 356.3786 346.3515   A 2.45 2.45 0.0 0 0 358.8584 348.7714   L 367.3377 348.6678   A 2.45 2.45 0.0 0 0 369.7576 346.1880   L 369.6814 339.9485   Z"/>
<path fill="#8562e7" d="   M 404.57 357.69   C 402.10 353.30 395.57 355.81 396.26 361.00   Q 396.49 362.75 396.46 364.37   Q 396.40 367.44 393.33 367.49   L 389.92 367.55   Q 386.75 367.60 386.74 364.42   L 386.71 332.01   A 1.36 1.36 0.0 0 1 388.05 330.65   Q 400.89 330.44 412.04 330.83   Q 416.98 331.00 418.25 335.67   C 420.02 342.18 420.28 350.20 414.93 355.09   A 2.15 2.15 0.0 0 0 414.49 357.71   L 418.50 365.08   Q 419.98 367.80 416.90 367.51   L 411.86 367.03   Q 408.59 366.72 407.38 363.66   Q 406.06 360.33 404.57 357.69   Z   M 409.5938 339.5718   A 1.96 1.96 0.0 0 0 407.6579 337.5880   L 398.2386 337.4729   A 1.96 1.96 0.0 0 0 396.2548 339.4088   L 396.1662 346.6682   A 1.96 1.96 0.0 0 0 398.1021 348.6520   L 407.5214 348.7671   A 1.96 1.96 0.0 0 0 409.5052 346.8312   L 409.5938 339.5718   Z"/>
<path fill="#8562e7" d="   M 425.60 361.05   C 427.67 359.68 429.87 360.21 429.81 356.78   Q 429.66 349.01 429.70 341.22   A 3.86 3.85 -66.3 0 0 428.67 338.57   Q 427.10 336.90 425.35 335.23   C 423.69 333.64 424.01 330.54 426.76 330.57   Q 434.91 330.65 442.92 330.76   A 1.67 1.66 -84.8 0 1 444.53 332.70   C 444.05 335.43 442.02 337.11 439.86 338.64   A 1.44 1.43 72.8 0 0 439.26 339.79   L 439.19 357.71   A 1.71 1.70 -73.9 0 0 439.98 359.15   Q 442.03 360.44 443.64 362.34   C 445.18 364.16 444.48 366.88 441.94 366.93   Q 434.97 367.08 426.98 367.00   A 1.79 1.78 76.1 0 1 425.43 366.06   C 424.76 364.80 424.09 362.04 425.60 361.05   Z"/>
<path fill="#8562e7" d="   M 519.26 355.00   A 1.81 1.81 0.0 0 0 518.84 357.27   L 522.99 364.71   Q 524.58 367.58 521.31 367.54   L 518.19 367.50   Q 514.50 367.46 512.85 364.15   Q 511.04 360.50 509.01 356.86   C 507.83 354.73 504.92 354.08 502.91 355.41   C 500.03 357.32 500.54 361.09 500.97 364.12   Q 501.34 366.66 498.81 367.06   Q 496.74 367.39 494.05 367.27   Q 491.40 367.16 491.39 364.51   L 491.36 332.23   A 1.48 1.48 0.0 0 1 492.78 330.75   Q 506.05 330.24 516.85 331.10   Q 521.87 331.50 523.13 336.05   C 524.88 342.37 524.82 350.35 519.26 355.00   Z   M 511.83 348.76   A 2.42 2.42 0.0 0 0 514.22 346.66   L 515.03 340.66   A 2.42 2.42 0.0 0 0 512.74 337.92   L 503.24 337.49   A 2.42 2.42 0.0 0 0 500.71 339.91   L 500.73 346.39   A 2.42 2.42 0.0 0 0 503.16 348.80   L 511.83 348.76   Z"/>
<path fill="#8562e7" d="   M 553.02 356.94   L 553.14 356.28   Q 553.82 352.55 550.04 352.86   Q 542.92 353.44 534.97 352.06   C 532.29 351.59 530.84 349.92 530.40 347.31   C 529.56 342.33 528.80 331.64 535.91 331.27   Q 544.72 330.81 555.89 330.60   Q 558.05 330.55 558.23 332.70   L 558.45 335.28   Q 558.63 337.43 556.47 337.48   L 541.52 337.87   Q 538.47 337.95 538.13 340.98   L 537.99 342.24   Q 537.69 344.92 540.37 345.11   Q 546.27 345.54 552.07 345.67   C 562.15 345.90 561.40 352.75 560.95 360.34   C 560.67 365.27 557.54 367.50 552.92 367.55   Q 540.28 367.70 531.52 366.65   Q 529.03 366.35 529.57 363.89   L 529.85 362.62   Q 530.36 360.29 532.74 360.31   L 548.81 360.44   Q 552.38 360.46 553.02 356.94   Z"/>
</svg>